<svg xmlns="http://www.w3.org/2000/svg" width="87" height="81" viewBox="0 0 87 81"><g><g><path fill="#407f7c" d="M79.51 48.49a17.996 17.996 0 0 1 7.475 14.59c0 9.88-8 17.92-17.834 17.92s-17.834-8.04-17.834-17.92c0-3.12.798-6.056 2.2-8.613l-10.019-6.498-10.057 6.523a17.875 17.875 0 0 1 2.205 8.622c0 4.5-1.667 8.803-4.694 12.115a17.751 17.751 0 0 1-11.506 5.73 1.28 1.28 0 0 1-1.387-1.161 1.282 1.282 0 0 1 1.155-1.393 15.173 15.173 0 0 0 8.548-3.642c-1.956-4.305-5.213-6.59-7.048-7.592-.813-.413-.892-1.655-.137-2.167a4.727 4.727 0 0 0 1.947-3.816c0-2.592-2.1-4.7-4.68-4.7-2.58 0-4.678 2.108-4.678 4.7 0 1.505.728 2.932 1.947 3.816.755.512.677 1.754-.137 2.167-1.84 1.006-5.113 3.303-7.066 7.634a15.267 15.267 0 0 0 6.586 3.302 1.283 1.283 0 0 1-.551 2.505 17.89 17.89 0 0 1-9.981-6.203A18.012 18.012 0 0 1-.024 63.114c0-9.88 8-17.92 17.835-17.92 5.812 0 10.983 2.808 14.241 7.145l10.17-6.596v-9.95c-9.24-.66-16.559-8.424-16.559-17.873 0-3.993 1.279-7.77 3.698-10.926a1.273 1.273 0 0 1 1.79-.234c.558.432.662 1.238.232 1.799a15.258 15.258 0 0 0-3.167 9.36c0 3.692 1.304 7.083 3.472 9.734a19.008 19.008 0 0 1 6.242-6.993 7.305 7.305 0 0 1-1.664-4.632c0-4.007 3.245-7.266 7.232-7.266 3.988 0 7.232 3.26 7.232 7.266a7.305 7.305 0 0 1-1.663 4.632 19.007 19.007 0 0 1 6.241 6.993 15.326 15.326 0 0 0 3.472-9.733c0-8.466-6.856-15.355-15.282-15.355-3.124 0-6.129.941-8.687 2.721a1.273 1.273 0 0 1-1.776-.324 1.286 1.286 0 0 1 .322-1.785A17.673 17.673 0 0 1 43.498 0c9.834 0 17.835 8.039 17.835 17.92 0 9.45-7.318 17.214-16.558 17.873v9.95l10.128 6.57c3.258-4.342 8.433-7.153 14.247-7.153 1.89 0 3.751.296 5.533.879.67.22 1.036.943.818 1.617a1.276 1.276 0 0 1-1.61.822c-1.525-.5-3.12-.753-4.74-.753-8.426 0-15.282 6.888-15.282 15.355 0 3.691 1.303 7.082 3.472 9.733a19.011 19.011 0 0 1 6.241-6.993 7.303 7.303 0 0 1-1.664-4.632c0-4.007 3.245-7.266 7.232-7.266 3.988 0 7.233 3.26 7.233 7.266a7.303 7.303 0 0 1-1.664 4.632 19.015 19.015 0 0 1 6.242 6.993 15.333 15.333 0 0 0 3.471-9.733c0-4.947-2.395-9.621-6.407-12.502a1.285 1.285 0 0 1-.296-1.789 1.272 1.272 0 0 1 1.78-.299zM29.654 72.813a15.353 15.353 0 0 0 3.437-9.699c0-8.466-6.855-15.354-15.281-15.354S2.529 54.648 2.529 63.114c0 3.517 1.213 6.953 3.416 9.677l.063.075a19.01 19.01 0 0 1 6.27-7.046 7.303 7.303 0 0 1-1.664-4.632c0-4.007 3.243-7.266 7.231-7.266s7.232 3.26 7.232 7.266a7.303 7.303 0 0 1-1.663 4.632 19.013 19.013 0 0 1 6.241 6.993zM40.63 22.011c-1.833 1.001-5.089 3.285-7.044 7.583a15.172 15.172 0 0 0 9.913 3.68c3.78 0 7.243-1.387 9.914-3.68-1.955-4.298-5.211-6.582-7.045-7.583-.813-.414-.892-1.655-.136-2.168a4.725 4.725 0 0 0 1.946-3.815c0-2.592-2.099-4.701-4.679-4.701s-4.678 2.109-4.678 4.701c0 1.506.727 2.932 1.946 3.815.755.513.677 1.754-.137 2.168zm28.522 56.424a15.17 15.17 0 0 0 9.913-3.68c-1.955-4.3-5.21-6.582-7.044-7.584-.814-.413-.893-1.655-.137-2.167a4.727 4.727 0 0 0 1.946-3.816c0-2.591-2.098-4.7-4.678-4.7s-4.68 2.109-4.68 4.7c0 1.505.729 2.932 1.948 3.816.755.512.677 1.754-.137 2.167-1.834 1.002-5.089 3.284-7.045 7.584a15.171 15.171 0 0 0 9.913 3.68z"/></g></g></svg>