<svg xmlns="http://www.w3.org/2000/svg" width="71" height="81" viewBox="0 0 71 81"><g><g><path fill="#407f7c" d="M70.987 69.151v9.318a2.529 2.529 0 0 1-2.52 2.53H2.496a2.528 2.528 0 0 1-2.519-2.53v-8.552c0-.658.53-1.188 1.182-1.188.653 0 1.183.532 1.183 1.188v8.552c0 .086.069.155.154.155H8.88V67.768c0-.657.53-1.188 1.183-1.188s1.182.532 1.182 1.188v10.856h48.47V67.768c0-.657.53-1.188 1.184-1.188.652 0 1.182.532 1.182 1.188v10.856h6.385a.155.155 0 0 0 .155-.155V69.15c0-2.913-.918-5.686-2.656-8.018a13.235 13.235 0 0 0-6.906-4.825c-.006 0-.012-.003-.019-.005l-7.386-2.313-5.821 6.674a5.409 5.409 0 0 1-5.84 1.571l-4.513-1.547-5.02 1.72a4.604 4.604 0 0 1-4.979-1.339l-6.174-7.079-7.387 2.314c-.006 0-.012.003-.017.004a13.316 13.316 0 0 0-8.487 7.573c-.12.282-.233.573-.334.863a1.182 1.182 0 0 1-1.506.731 1.19 1.19 0 0 1-.726-1.512 15.671 15.671 0 0 1 10.376-9.929l8.11-2.542h.002l5.8-1.816a2.422 2.422 0 0 1 1.562.038c.41-.367.658-.9.658-1.467v-.294l-9.735-2.44a6.949 6.949 0 0 1-5.257-6.758V33.87a3.428 3.428 0 0 1-1.315-2.701V25.37c0-1.068.5-2.058 1.315-2.7v-1.646C12.367 9.43 21.755 0 33.294 0h3.53c8.368 0 15.916 4.99 19.228 12.71a1.19 1.19 0 0 1-.617 1.56 1.18 1.18 0 0 1-1.555-.62C50.942 6.8 44.247 2.375 36.825 2.375h-3.531c-10.235 0-18.563 8.366-18.563 18.649v2.89l.047.019c.168.07.338.137.507.202.074.029.148.056.223.084a19.977 19.977 0 0 0 1.707.535l.226.06c.187.046.373.09.56.13l.156.033c.16.033.322.065.484.095l.161.029a20.805 20.805 0 0 0 .625.099c11.68 1.655 23.852-7.019 26.038-8.666l.02-.015.087-.067.03-.021c.02-.016.04-.03.056-.044a.632.632 0 0 1 .035-.027l.028-.022.035-.027.01-.006c.025-.021.043-.035.045-.038l.068-.047c.17-.12.366-.191.571-.209.03-.003.057-.002.087-.003.016 0 .034-.002.051 0a1.187 1.187 0 0 1 1.07.773c.056.15.116.297.177.442.028.067.059.133.088.198a13.008 13.008 0 0 0 .23.48c.018.036.035.07.055.105 1.206 2.277 3.065 3.62 4.735 4.407l.123.058c.874.4 1.69.65 2.322.803v-2.25c0-.795-.05-1.595-.149-2.378a1.182 1.182 0 0 1 2.344-.3c.112.882.168 1.783.168 2.678v1.16a3.403 3.403 0 0 1 2.16 3.186v5.798a3.43 3.43 0 0 1-2.16 3.187v4.447a6.961 6.961 0 0 1-5.188 6.74l-8.959 2.34v.365c0 .567.249 1.1.658 1.467a2.427 2.427 0 0 1 1.562-.038l5.801 1.816h.002l8.11 2.542c3.272.97 6.08 2.932 8.123 5.676a15.697 15.697 0 0 1 3.127 9.441zm-15.6-30.35v-.955a6.16 6.16 0 0 1-4.712 3.866l-1.335.23a14.696 14.696 0 0 1-.502.548c-.299.315-.61.619-.929.911l-.029.027c-.201.182-.405.361-.613.535l-.077.063c-.196.161-.394.317-.597.47-.03.022-.058.046-.087.068-.072.054-.142.11-.215.162l5.676-1.482a4.584 4.584 0 0 0 3.42-4.443zM53.79 32.22h2.684l.056-.002h.02c.554-.027.995-.487.995-1.05v-5.81l-.005.008-.05.066c-.011.012-.019.024-.029.036a1.172 1.172 0 0 1-.985.404h-.002c-.126-.01-1.13-.102-2.51-.519v4.317a19.213 19.213 0 0 1-.038 1.2l-.008.12c-.028.4-.07.794-.121 1.186l-.007.045zm-2.006 6.193c-.065.123-.133.245-.2.366-.03.052-.058.106-.087.158a3.818 3.818 0 0 0 1.944-3.335v-1.006h-.135l-.022.077c-.057.198-.115.396-.176.592l-.07.213c-.062.19-.127.38-.196.567l-.076.204a24.267 24.267 0 0 1-.278.69c-.067.16-.138.32-.21.478-.038.084-.078.167-.117.25-.078.163-.158.325-.241.486-.044.087-.09.174-.136.26zm-37.32-6.193h2.708l-.005-.044a18.546 18.546 0 0 1-.122-1.186l-.008-.12c-.01-.155-.017-.312-.023-.469l-.006-.15c-.006-.194-.01-.387-.01-.581V27.15a21.324 21.324 0 0 1-2.303-.701l-.02-.007c-.162-.06-.322-.121-.48-.184-.053-.02-.104-.042-.156-.063a17.61 17.61 0 0 1-.354-.148l-.164-.07a7.65 7.65 0 0 1-.104-.045v5.236c0 .425.253.791.615.957h.003c.137.063.281.095.428.095zm10.432 12.67c-.153-.109-.301-.222-.451-.335l-.017-.011a18.966 18.966 0 0 1-1.016-.821l-.068-.061a18.223 18.223 0 0 1-1.175-1.125l-.088-.092a17.587 17.587 0 0 1-.512-.563c-.021-.027-.044-.05-.065-.075-.09-.104-.179-.212-.267-.318a19.35 19.35 0 0 1-.673-.87 18.248 18.248 0 0 1-1.1-1.69 19.94 19.94 0 0 1-.645-1.225l-.11-.236a17.852 17.852 0 0 1-.5-1.19l-.08-.21c-.07-.192-.137-.386-.2-.58a18.285 18.285 0 0 1-.248-.817c-.008-.025-.017-.05-.024-.076h-2.926v4.161a4.581 4.581 0 0 0 3.464 4.455zm3.873-.498l.134.06a15.96 15.96 0 0 0 8.254 1.324 3.47 3.47 0 0 1-2.007-2.594c-.323-1.893.948-3.697 2.832-4.021l3.854-.664a3.43 3.43 0 0 1 2.588.589c.422.299.76.682 1.008 1.12l2.655-.457a16.25 16.25 0 0 0 2.527-4.498c.004-.014.01-.027.013-.04.043-.114.084-.23.122-.346.002-.01.006-.018.01-.028.117-.346.22-.7.315-1.057l.02-.08c.023-.086.043-.173.064-.259a13.166 13.166 0 0 0 .093-.417c.014-.063.026-.127.039-.191l.039-.2a11.005 11.005 0 0 0 .07-.405c.013-.092.028-.185.04-.277l.02-.136a8.438 8.438 0 0 0 .049-.422c.012-.109.023-.218.03-.327.005-.034.009-.067.01-.1.01-.112.016-.224.024-.336 0-.032.004-.064.005-.096.006-.114.01-.229.015-.343l.002-.09c.004-.144.005-.288.005-.431v-4.885c0-.122-.002-.248-.005-.373-1.973-.989-4.113-2.637-5.524-5.375a54.775 54.775 0 0 1-9.945 5.629c-3.488 1.503-6.864 2.46-10.073 2.874l-.117.016c-.138.018-.276.033-.414.049l-.464.048-.188.018c-1.907.172-3.75.146-5.507-.08v2.078c0 .143.002.288.006.431l.003.09c.004.115.008.23.014.344l.006.095c.006.113.014.224.022.336l.01.1c.009.11.02.219.03.327.004.039.01.077.013.114a15.596 15.596 0 0 0 .098.722l.027.165c.013.08.028.16.042.239.013.067.025.134.04.2a11.667 11.667 0 0 0 .132.608c.02.087.041.174.064.26l.019.076c.094.36.2.715.317 1.065l.008.023a14.546 14.546 0 0 0 .135.384 16.265 16.265 0 0 0 8.42 9.144zm14.74-2.65a1.11 1.11 0 0 0-.45-.718 1.09 1.09 0 0 0-.823-.187l-3.854.664c-.6.103-1.003.678-.902 1.281a1.103 1.103 0 0 0 1.275.903l3.854-.663a1.108 1.108 0 0 0 .901-1.28zM33.249 58.944l-7.338-6.986a.066.066 0 0 0-.067-.015l-4.066 1.275 5.483 6.286a2.257 2.257 0 0 0 2.44.655zm2.233-1.146l6.924-6.591a4.358 4.358 0 0 1-1.166-2.96v-.929c-.076.026-.155.047-.23.071l-.118.036c-.234.073-.47.14-.706.202l-.127.034c-.131.034-.264.066-.396.099l-.104.022a17.296 17.296 0 0 1-.924.184c-.112.02-.224.039-.335.056-.169.026-.338.048-.506.072l-.267.03c-.143.015-.287.03-.432.042-.061.006-.121.012-.182.016-.2.016-.404.027-.61.037-.056.003-.115.004-.171.006-.216.007-.432.013-.65.013-.217 0-.433-.006-.648-.013-.058-.002-.116-.003-.173-.006-.204-.01-.408-.021-.61-.037-.06-.004-.121-.01-.182-.016a21.87 21.87 0 0 1-.431-.042l-.267-.03c-.17-.024-.338-.046-.507-.072a13.276 13.276 0 0 1-.333-.056 17.711 17.711 0 0 1-.925-.184l-.104-.022c-.133-.033-.264-.065-.396-.1a14.95 14.95 0 0 1-.95-.271c-.078-.024-.155-.045-.233-.07v.928a4.358 4.358 0 0 1-1.164 2.96zm13.705-4.58l-4.066-1.275a.067.067 0 0 0-.067.015l-7.338 6.986 3.043 1.041a3.048 3.048 0 0 0 3.298-.887zM27.224 68.053v3.962c0 1.15-.932 2.087-2.077 2.087h-8.905a2.085 2.085 0 0 1-2.078-2.087v-3.962c0-1.151.933-2.087 2.078-2.087h8.905c1.145 0 2.077.936 2.077 2.087zm-2.364.288h-8.332v3.386h8.332z"/></g></g></svg>