<svg xmlns="http://www.w3.org/2000/svg" width="80" height="81" viewBox="0 0 80 81"><g><g><path fill="#407f7c" d="M79.984 42.432c0 10.302-4.026 19.987-11.335 27.272C61.339 76.989 51.619 81 41.282 81c-10.34 0-20.059-4.011-27.369-11.296-7.31-7.285-11.336-16.969-11.336-27.272 0-1.766.121-3.542.36-5.281-1.67-2.882-2.945-6.021-2.945-8.89 0-6.349 5.183-11.513 11.554-11.513.28 0 .558.013.832.033A38.6 38.6 0 0 1 24.395 7.72a38.47 38.47 0 0 1 15.053-3.813 1.207 1.207 0 1 1 .112 2.413c-9.327.434-17.93 4.332-24.386 11.012a11.586 11.586 0 0 1 7.282 7.139l9.603 1.196c.232.029.45.124.629.273l9.373 7.838c.221.184.368.442.417.725l1.562 9.286.228 1.365a11.532 11.532 0 0 1 6.583-2.613c2.202-3.298 6.502-8.447 6.684-8.665.202-.241.49-.395.804-.429l17.58-1.844a35.76 35.76 0 0 0-5.573-10.81c-3.053 5.119-7.247 9.336-7.522 9.61a1.229 1.229 0 0 1-1.715 0c-.435-.434-10.697-10.753-10.697-18.89 0-1.366.242-2.677.683-3.894a36.33 36.33 0 0 0-6.054-1.147 1.21 1.21 0 0 1-1.082-1.326A1.211 1.211 0 0 1 45.29 4.07c2.328.24 4.641.693 6.883 1.347A11.565 11.565 0 0 1 61.967 0c6.37 0 11.553 5.165 11.553 11.514 0 2.237-.776 4.64-1.91 6.957 5.479 6.876 8.374 15.159 8.374 23.96zm-8.887-30.918c0-5.017-4.096-9.1-9.13-9.1-5.034 0-9.132 4.083-9.132 9.1 0 5.878 6.71 13.663 9.132 16.281 2.42-2.618 9.13-10.403 9.13-16.281zM42.492 54.026c0 5.88 6.711 13.664 9.132 16.282 2.42-2.618 9.13-10.403 9.13-16.282 0-5.016-4.096-9.097-9.13-9.097-5.035 0-9.132 4.08-9.132 9.097zm-30.946-9.484c2.421-2.617 9.13-10.402 9.13-16.28 0-5.018-4.095-9.099-9.13-9.099-5.035 0-9.13 4.08-9.13 9.098 0 5.88 6.709 13.664 9.13 16.28zm7.653 26.554l8.12-6.207 3.134-9.464-6.98-4.174a1.203 1.203 0 0 1-.483-.544L18.26 40.105c-2.725 3.899-5.63 6.819-5.858 7.046a1.229 1.229 0 0 1-1.715 0c-.221-.22-2.973-2.99-5.631-6.724A36.545 36.545 0 0 0 5 42.432c0 11.66 5.571 22.048 14.198 28.664zm6.924 4.178l11.58-6.613 3.412-9.656c-.646-1.682-1.046-3.372-1.046-4.979 0-2.466.784-4.75 2.116-6.628l-.538-3.21-1.488-8.846-8.756-7.322-8.376-1.043c.047.421.073.85.073 1.285 0 3.047-1.44 6.401-3.263 9.427l5.212 11.688 7.482 4.473c.486.291.705.878.528 1.414L29.503 66c-.076.23-.22.432-.413.58l-7.831 5.985a36.318 36.318 0 0 0 4.864 2.71zM71.8 61.96l-9.908-2.35c-2.768 6.63-9.07 12.967-9.412 13.306a1.226 1.226 0 0 1-1.714 0c-.296-.296-5.121-5.147-8.189-10.778l-2.739 7.75a1.202 1.202 0 0 1-.54.645L28.96 76.437a36.234 36.234 0 0 0 12.322 2.148c12.79 0 24.057-6.632 30.518-16.625zm1.3-2.175a35.82 35.82 0 0 0 4.46-17.353c0-2.894-.334-5.73-.99-8.468l-17.487 1.834c-.896 1.086-3.535 4.31-5.395 6.903 5.389.973 9.49 5.679 9.49 11.325 0 1.067-.177 2.174-.486 3.29zm-15.092-5.759c0 3.51-2.865 6.362-6.384 6.362-3.522 0-6.384-2.853-6.384-6.362 0-3.506 2.862-6.361 6.384-6.361 3.519 0 6.384 2.855 6.384 6.361zm-2.425 0c0-2.174-1.776-3.945-3.96-3.945a3.957 3.957 0 0 0-3.958 3.945 3.955 3.955 0 0 0 3.959 3.946 3.956 3.956 0 0 0 3.959-3.946zm12.768-42.512c0 3.507-2.865 6.36-6.384 6.36-3.521 0-6.384-2.853-6.384-6.36 0-3.508 2.863-6.36 6.384-6.36 3.52 0 6.384 2.852 6.384 6.36zm-2.426 0a3.956 3.956 0 0 0-3.958-3.945 3.956 3.956 0 0 0-3.96 3.945 3.956 3.956 0 0 0 3.96 3.945 3.957 3.957 0 0 0 3.958-3.945zM17.93 28.26c0 3.508-2.863 6.36-6.383 6.36s-6.383-2.852-6.383-6.36c0-3.507 2.863-6.36 6.383-6.36s6.383 2.853 6.383 6.36zm-2.424 0c0-2.175-1.776-3.945-3.96-3.945-2.182 0-3.959 1.77-3.959 3.945 0 2.176 1.777 3.946 3.96 3.946s3.96-1.77 3.96-3.946z"/></g></g></svg>