<svg xmlns="http://www.w3.org/2000/svg" width="80" height="81" viewBox="0 0 80 81"><g><g><path fill="#407f7c" d="M54.535 7.574c0 .665-.54 1.205-1.206 1.205H32.644a1.206 1.206 0 0 1 0-2.412H53.33c.667 0 1.206.54 1.206 1.207zm-11.473 5.138c0 .666-.54 1.206-1.205 1.206h-9.213a1.206 1.206 0 1 1 0-2.412h9.213c.664 0 1.205.54 1.205 1.206zm36.742 3.569v46.582a4.568 4.568 0 0 1-4.562 4.564H49.783v6.389a5.986 5.986 0 0 1 5.872 5.978c0 .667-.54 1.206-1.205 1.206H25.355a1.205 1.205 0 0 1-1.205-1.206 5.986 5.986 0 0 1 5.871-5.978v-6.39H17.666a1.207 1.207 0 0 1 0-2.411h57.576a2.154 2.154 0 0 0 2.15-2.152v-9.906H2.413v9.906c0 1.186.964 2.152 2.15 2.152h7.424a1.205 1.205 0 1 1 0 2.412H4.562A4.569 4.569 0 0 1 0 62.863V16.28a4.568 4.568 0 0 1 4.562-4.564h6.327V3.51A3.626 3.626 0 0 1 14.51-.112h50.462a3.626 3.626 0 0 1 3.622 3.623v8.206h2.01a1.206 1.206 0 0 1 0 2.411h-2.01v36.416h8.798V16.281a2.154 2.154 0 0 0-2.151-2.153 1.206 1.206 0 0 1 0-2.411 4.568 4.568 0 0 1 4.562 4.564zm-68.916-2.153H4.562c-1.186 0-2.15.966-2.15 2.153v34.263h8.476zM66.184 3.511c0-.668-.543-1.211-1.211-1.211H14.51c-.668 0-1.212.543-1.212 1.21v13.995h5.546a1.206 1.206 0 0 1 0 2.412H13.3v30.627h52.885V19.917h-41.07a1.206 1.206 0 1 1 0-2.412h41.07zM32.432 73.813h14.94v-6.388h-14.94zm17.244 2.411H30.13a3.576 3.576 0 0 0-3.359 2.364h26.265a3.577 3.577 0 0 0-3.359-2.364zm-5.483-17.24a3.648 3.648 0 0 1-3.644 3.645 3.648 3.648 0 0 1-3.644-3.645 3.648 3.648 0 0 1 3.644-3.644 3.649 3.649 0 0 1 3.644 3.644zm-2.412 0a1.233 1.233 0 1 0-2.466.003 1.233 1.233 0 0 0 2.466-.003zM26.498 13.566a1.206 1.206 0 0 1-1.044.603h-7.936a1.206 1.206 0 0 1-1.045-1.809l3.969-6.875a1.205 1.205 0 0 1 2.088 0l3.968 6.875c.215.373.215.833 0 1.206zm-3.133-1.808L21.485 8.5l-1.88 3.257zm40.47 13.811c0 .666-.538 1.206-1.204 1.206h-17.46a1.206 1.206 0 0 1 0-2.411h17.46c.666 0 1.205.539 1.205 1.205zm0 5.304c0 .666-.538 1.206-1.204 1.206h-17.46a1.206 1.206 0 0 1 0-2.412h17.46c.666 0 1.205.54 1.205 1.206zm0 5.304c0 .666-.538 1.206-1.204 1.206h-17.46a1.207 1.207 0 0 1 0-2.412h17.46c.666 0 1.205.54 1.205 1.206zm0 5.303c0 .665-.538 1.206-1.204 1.206h-17.46a1.207 1.207 0 0 1 0-2.412h17.46c.666 0 1.205.54 1.205 1.206zm-9.3 5.303c0 .667-.54 1.206-1.206 1.206h-8.158a1.206 1.206 0 1 1 0-2.412h8.158c.667 0 1.206.54 1.206 1.206zm-13.588-22.23v22.23c0 .667-.54 1.206-1.206 1.206H17.518c-.667 0-1.206-.539-1.206-1.206v-22.23c0-.666.54-1.205 1.206-1.205H39.74c.667 0 1.206.54 1.206 1.206zM18.723 36.727a7.705 7.705 0 0 1 2.458-.571c2.78-.168 4.53 1.277 6.072 2.553 1.385 1.146 2.479 2.053 4.185 1.913 1.054-.085 1.684-.523 2.413-1.03.971-.676 2.18-1.517 4.28-1.281.135.015.27.035.405.058V25.76H18.723zm19.813 4.106c-.225-.059-.45-.1-.673-.126-1.2-.133-1.77.263-2.635.864-.844.587-1.893 1.317-3.595 1.455-2.683.217-4.4-1.204-5.917-2.459-1.372-1.135-2.557-2.115-4.388-2.003-.876.052-1.75.34-2.605.857v6.157h19.813zm-3.037-8.69a3.693 3.693 0 0 1-3.689 3.69 3.693 3.693 0 0 1-3.689-3.69 3.693 3.693 0 0 1 3.69-3.69 3.693 3.693 0 0 1 3.688 3.69zm-2.411 0a1.279 1.279 0 1 0-1.277 1.278c.704 0 1.277-.573 1.277-1.278z"/></g></g></svg>