<svg xmlns="http://www.w3.org/2000/svg" width="71" height="81" viewBox="0 0 71 81"><g><g><path fill="#407f7c" d="M25.41 81V65.757H7.175C3.289 65.757 0 62.618 0 58.583V22.417c0-3.886 3.139-7.173 7.175-7.173h43.049V6.426C50.224 2.99 53.063 0 56.65 0a6.38 6.38 0 0 1 6.427 6.426v8.818h.748c3.886 0 7.174 3.138 7.174 7.173v36.315c0 3.886-3.138 7.174-7.174 7.174H43.198zM7.175 18.232c-2.392.15-4.185 1.943-4.185 4.185v36.315c0 2.242 1.793 4.185 4.185 4.185H28.4v11.657l13.752-11.657h21.674c2.241 0 4.185-1.793 4.185-4.185V22.417c0-2.242-1.794-4.185-4.185-4.185h-.748V29.89l-6.427 11.06-6.427-10.91V18.231zm46.187 10.91L56.8 34.97l3.438-5.83V6.427c0-1.793-1.494-3.437-3.438-3.437-1.943 0-3.438 1.494-3.438 3.437zm-41.553-1.196H42.6v2.99H11.81zm0 5.978H42.6v2.989H11.81zm0 5.978H42.6v2.989H11.81zm0 5.978h48.728v2.989H11.809zm0 5.978h48.728v2.989H11.809z"/></g></g></svg>