<svg xmlns="http://www.w3.org/2000/svg" width="81" height="82" viewBox="0 0 81 82"><g><g><path fill="#407f7c" d="M56.863 27.062l.006.006a4.076 4.076 0 0 1-.002 5.749l-7.318 7.345 7.425 7.454c.527.53.527 1.388 0 1.917l-7.642 7.656a1.347 1.347 0 0 1-1.907 0l-7.424-7.453-2.225 2.232c-.116.115-.25.206-.399.27v.01L26.876 57.04c-.35.16-.752.161-1.105.004a1.357 1.357 0 0 1-.687-1.788l4.772-10.539h.009c.065-.15.156-.289.27-.406l2.23-2.238-7.853-7.882-.001-.001a1.359 1.359 0 0 1 0-1.916l7.64-7.657a1.347 1.347 0 0 1 1.91 0l7.846 7.876 7.32-7.348a4.136 4.136 0 0 1 5.727 0zm-22.59 13.095l5.725-5.746-3.076-3.089-1.907 1.914-1.909-1.917 1.908-1.913-1.91-1.915-5.727 5.742zm.21 10.431l-2.97-2.98-2.477 5.471zm13.153-8.509l-5.727 5.746 6.468 6.486 5.729-5.741-1.91-1.918-1.907 1.915-1.91-1.917 1.908-1.914zm4.455-8.307l-3.818-3.834-15.275 15.329 3.819 3.832zm2.863-2.877l.001-.001a1.359 1.359 0 0 0 0-1.916l-1.91-1.916a1.375 1.375 0 0 0-1.907 0l-.956.958L54 31.853zM81 14.174v6.821c0 .748-.604 1.355-1.35 1.355h-10.8c-.745 0-1.35-.607-1.35-1.355v-6.821a5.357 5.357 0 0 1 2.642-4.608 5.436 5.436 0 0 1 0-7.036 5.387 5.387 0 0 1 7.613-.605 5.434 5.434 0 0 1 .603 7.641A5.357 5.357 0 0 1 81 14.174zm-9.45-8.085a2.705 2.705 0 0 0 2.7 2.71c1.492 0 2.7-1.213 2.7-2.71a2.705 2.705 0 0 0-2.7-2.71 2.705 2.705 0 0 0-2.7 2.71zm6.75 8.085a2.663 2.663 0 0 0-2.654-2.665h-2.791a2.662 2.662 0 0 0-2.655 2.665v5.466h8.1zM81 73.797v6.821c0 .748-.604 1.355-1.35 1.355h-10.8c-.745 0-1.35-.607-1.35-1.355v-6.82a5.358 5.358 0 0 1 2.642-4.608 5.435 5.435 0 0 1 0-7.036 5.387 5.387 0 0 1 7.613-.606 5.435 5.435 0 0 1 .603 7.642A5.358 5.358 0 0 1 81 73.797zm-9.45-8.084a2.705 2.705 0 0 0 2.7 2.71c1.492 0 2.7-1.213 2.7-2.71a2.705 2.705 0 0 0-2.7-2.71 2.706 2.706 0 0 0-2.7 2.71zm6.75 8.084a2.663 2.663 0 0 0-2.654-2.665h-2.791a2.663 2.663 0 0 0-2.655 2.665v5.467h8.1zM0 80.618v-6.82a5.357 5.357 0 0 1 2.642-4.608 5.435 5.435 0 0 1 0-7.036 5.386 5.386 0 0 1 7.613-.606 5.435 5.435 0 0 1 .603 7.642 5.359 5.359 0 0 1 2.642 4.607v6.821c0 .748-.604 1.355-1.35 1.355H1.35c-.745 0-1.35-.607-1.35-1.355zm4.05-14.905c0 1.497 1.21 2.71 2.7 2.71 1.491 0 2.7-1.213 2.7-2.71 0-1.497-1.209-2.71-2.7-2.71-1.49 0-2.7 1.213-2.7 2.71zM2.7 79.263h8.1v-5.466a2.662 2.662 0 0 0-2.654-2.665H5.354A2.662 2.662 0 0 0 2.7 73.797zM0 20.996v-6.821a5.357 5.357 0 0 1 2.642-4.608 5.436 5.436 0 0 1 0-7.036 5.386 5.386 0 0 1 7.613-.605 5.434 5.434 0 0 1 .603 7.641 5.358 5.358 0 0 1 2.642 4.608v6.821c0 .748-.604 1.355-1.35 1.355H1.35c-.745 0-1.35-.607-1.35-1.355zM4.05 6.089c0 1.497 1.21 2.71 2.7 2.71 1.491 0 2.7-1.213 2.7-2.71 0-1.497-1.209-2.71-2.7-2.71-1.49 0-2.7 1.213-2.7 2.71zM2.7 19.64h8.1v-5.465a2.662 2.662 0 0 0-2.654-2.665H5.354A2.662 2.662 0 0 0 2.7 14.174zm2.7 5.421h2.7v32.522H5.4zm10.8 46.072h48.6v2.711H16.2zm0-62.333h48.6v2.71H16.2zM72.9 25.06h2.7v32.522h-2.7z"/></g></g></svg>