<svg xmlns="http://www.w3.org/2000/svg" width="25" height="25" viewBox="0 0 25 25"><defs><linearGradient id="dwj6a" x1="2.6" x2="22.6" y1="12.82" y2="12.82" gradientUnits="userSpaceOnUse"><stop offset="0" stop-color="#b6ff9b"/><stop offset="1" stop-color="#94ffdb"/></linearGradient><clipPath id="dwj6b"><path fill="#fff" d="M1.04 23.96V1.04h22.92v22.92zM6.492 4.898C2.118 8.27 1.306 14.55 4.677 18.923c3.372 4.375 9.651 5.187 14.025 1.816 4.375-3.372 5.187-9.651 1.816-14.025-3.372-4.375-9.651-5.187-14.026-1.816z"/></clipPath></defs><g><g><path fill="#fff" d="M6.492 4.898c4.375-3.371 10.654-2.559 14.026 1.816 3.371 4.374 2.559 10.653-1.816 14.025-4.374 3.371-10.653 2.559-14.025-1.816C1.306 14.55 2.118 8.27 6.492 4.898z"/><path fill="url(#dwj6a)" d="M6.492 4.898c4.375-3.371 10.654-2.559 14.026 1.816 3.371 4.374 2.559 10.653-1.816 14.025-4.374 3.371-10.653 2.559-14.025-1.816C1.306 14.55 2.118 8.27 6.492 4.898z"/><path fill="none" stroke="#031a27" stroke-linecap="round" stroke-linejoin="round" stroke-miterlimit="20" stroke-width="4" d="M6.492 4.898c4.375-3.371 10.654-2.559 14.026 1.816 3.371 4.374 2.559 10.653-1.816 14.025-4.374 3.371-10.653 2.559-14.025-1.816C1.306 14.55 2.118 8.27 6.492 4.898z" clip-path="url(&quot;#dwj6b&quot;)"/></g><g><path fill="#031a27" d="M14.648 6.2l-1.05 4.56a.374.374 0 0 1-.506.23l-2.619-1.466a.286.286 0 0 0-.397.307l.75 2.905a.371.371 0 0 1-.35.431l-4.679-.146a.288.288 0 0 0-.272.29.267.267 0 0 0 .09.194L11.6 18.77c.22.186.548.19.784.007l6.153-4.743a.624.624 0 0 0 .193-.76L15.16 6.15a.274.274 0 0 0-.374-.11.29.29 0 0 0-.138.16z"/></g></g></svg>