<svg xmlns="http://www.w3.org/2000/svg" width="13" height="15" viewBox="0 0 13 15"><g><g><path fill="#0e5d59" d="M12.845 3.047v.937a.466.466 0 0 1-.462.469H1.28a.466.466 0 0 1-.462-.469v-.937c0-.647.518-1.172 1.156-1.172H4.52v-.47C4.52.63 5.14 0 5.907 0h1.85c.767 0 1.388.63 1.388 1.406v.469h2.544c.639 0 1.156.525 1.156 1.172zm-7.4-1.172H8.22v-.47a.466.466 0 0 0-.463-.468h-1.85a.466.466 0 0 0-.463.469zm6.522 3.515c.083 0 .148.07.145.154l-.382 8.116A1.395 1.395 0 0 1 10.344 15H3.32a1.394 1.394 0 0 1-1.386-1.34l-.382-8.116a.146.146 0 0 1 .145-.154zm-3.285 7.266c0 .26.206.469.463.469a.465.465 0 0 0 .462-.47V6.563a.465.465 0 0 0-.462-.469.465.465 0 0 0-.463.47zm-2.313 0c0 .26.208.469.463.469a.465.465 0 0 0 .463-.47V6.563a.466.466 0 0 0-.463-.469.466.466 0 0 0-.463.47zm-2.312 0c0 .26.207.469.462.469a.465.465 0 0 0 .463-.47V6.563a.466.466 0 0 0-.463-.469.466.466 0 0 0-.462.47z"/></g></g></svg>