<svg xmlns="http://www.w3.org/2000/svg" width="26" height="20" viewBox="0 0 26 20"><g><g><path fill="#64a5a2" d="M25.042 19.821L3.174 20c-.547 0-.912-.448-.912-.986L.076 8.52c-.365-.986.546-.986.546-.986h2.005V2.87c0-.449.455-.897.91-.897.365 0 .639-.628.639-.897v-.09c0-.538.456-.896.911-.896L11.283 0c.547 0 1.002.448 1.002.987v.09c0 .268.274.896.638.896l11.664-.09c.455 0 .91.36.91.897l.092 16.145s.09.986-.547.896zM24.404 8.79V3.857l-20.592.18v3.587l17.585-.09s.73-.09.912.538l2.187 11.301z"/></g></g></svg>