<svg xmlns="http://www.w3.org/2000/svg" width="164" height="150" viewBox="0 0 164 150"><g><g><path fill="#2d4957" d="M115.612 149.55L10.491 121.316c-7.206-1.99-11.502-9.477-9.612-16.704L14.142 55.03c.49-1.82 2.352-2.878 4.16-2.414a3.412 3.412 0 0 1 2.407 4.173L7.452 106.357c-.945 3.614 1.217 7.377 4.827 8.38l105.08 28.22c3.61.954 7.335-1.2 8.274-4.8l5.31-19.732c.489-1.82 2.35-2.905 4.167-2.406 1.815.49 2.882 2.365 2.399 4.18l-5.302 19.703C130.61 145.97 125.103 150 119.08 150c-1.143 0-2.312-.143-3.468-.45zm34.379-40.46H41.219c-7.498 0-13.596-6.114-13.596-13.635V13.637C27.623 6.117 33.72 0 41.219 0h108.772c7.498 0 13.596 6.116 13.596 13.637V85.06c.006.112.006.224 0 .336v10.06c0 7.52-6.098 13.635-13.596 13.635zM41.219 6.819c-3.746 0-6.798 3.062-6.798 6.819v76.998l26.778-26.857c3.848-3.859 10.571-3.859 14.42 0l9.558 9.586 26.458-31.84a10.202 10.202 0 0 1 7.763-3.683h.076a10.18 10.18 0 0 1 7.743 3.566l29.572 34.604V13.637c0-3.757-3.052-6.819-6.798-6.819zm0 95.454h108.772c3.746 0 6.798-3.06 6.798-6.817v-8.968l-34.733-40.641a3.357 3.357 0 0 0-2.582-1.187c-.707-.061-1.951.43-2.612 1.228l-28.844 34.71a3.378 3.378 0 0 1-2.461 1.221c-.965.068-1.883-.313-2.556-.995L70.812 68.598c-1.285-1.282-3.521-1.282-4.807 0L35.523 99.17a6.796 6.796 0 0 0 5.696 3.102zm20.394-54.545c-7.498 0-13.596-6.116-13.596-13.636s6.098-13.636 13.596-13.636c7.499 0 13.597 6.116 13.597 13.636s-6.098 13.636-13.597 13.636zm0-20.454c-3.745 0-6.797 3.061-6.797 6.818 0 3.757 3.052 6.818 6.797 6.818 3.747 0 6.8-3.061 6.8-6.818 0-3.757-3.053-6.818-6.8-6.818z"/></g></g></svg>