<svg xmlns="http://www.w3.org/2000/svg" width="397" height="385" viewBox="0 0 397 385"><defs><clipPath id="v2lba"><path fill="#fff" d="M39 0h319c21.539 0 39 17.46 39 39v307c0 21.539-17.461 39-39 39H39c-21.54 0-39-17.461-39-39V39C0 17.46 17.46 0 39 0z"/></clipPath><clipPath id="v2lbb"><path fill="#fff" d="M231 148v-25h25v25zm5-12.501a7.5 7.5 0 1 0 15 0 7.5 7.5 0 0 0-15 0z"/></clipPath></defs><g><g><path fill="#141414" d="M39 0h319c21.539 0 39 17.46 39 39v307c0 21.539-17.461 39-39 39H39c-21.54 0-39-17.461-39-39V39C0 17.46 17.46 0 39 0z"/><path fill="none" stroke="#407f7c" stroke-linecap="round" stroke-linejoin="round" stroke-miterlimit="20" stroke-width="4" d="M39 0h319c21.539 0 39 17.46 39 39v307c0 21.539-17.461 39-39 39H39c-21.54 0-39-17.461-39-39V39C0 17.46 17.46 0 39 0z" clip-path="url(&quot;#v2lba&quot;)"/></g><g><path fill="#407f7c" d="M34 39h178v149H34z"/></g><g><path fill="#005450" d="M67 67h113v83H67z"/></g><g><path fill="#407f7c" d="M95.83 95.766c0-4.487 3.616-8.137 8.061-8.137 4.446 0 8.062 3.65 8.062 8.138 0 4.486-3.616 8.135-8.062 8.135-4.445 0-8.061-3.65-8.061-8.136zm2.895.001c0 2.874 2.317 5.212 5.166 5.212s5.167-2.34 5.167-5.213c0-2.874-2.318-5.215-5.167-5.215-2.849 0-5.166 2.342-5.166 5.216zm-8.949 33.738a1.471 1.471 0 0 1 .13-2.063l24.634-21.892a1.438 1.438 0 0 1 1.98.065l6.866 6.929 14.178-15.672c.259-.287.62-.458 1.004-.475.381-.009.758.12 1.043.383l17.37 16.072c.59.545.63 1.469.09 2.064a1.44 1.44 0 0 1-2.046.09l-16.3-15.082-13.291 14.69 6.959 7.023a1.47 1.47 0 0 1 0 2.066 1.44 1.44 0 0 1-2.047 0l-14.913-15.05-23.614 20.983a1.438 1.438 0 0 1-2.042-.13z"/></g><g><path fill="#407f7c" d="M33 269h101v8H33z"/></g><g><path fill="#407f7c" d="M33 322h101v8H33z"/></g><g><path fill="#407f7c" d="M33 339h71v8H33z"/></g><g><path fill="#407f7c" d="M33 304h141v8H33z"/></g><g><path fill="#407f7c" d="M33 287h175v8H33z"/></g><g><path fill="#fff" d="M243.5 128a7.5 7.5 0 1 1-7.5 7.499 7.5 7.5 0 0 1 7.5-7.5z"/><path fill="none" stroke="#407f7c" stroke-linecap="round" stroke-linejoin="round" stroke-miterlimit="20" stroke-width="10" d="M243.5 128a7.5 7.5 0 1 1-7.5 7.499 7.5 7.5 0 0 1 7.5-7.5z" clip-path="url(&quot;#v2lbb&quot;)"/></g><g><g><text dominant-baseline="text-before-edge" style="line-height:18px" fill="#fff" font-family="'Muli','Muli-Light'" font-size="14" font-style="none" font-weight="lighter" transform="translate(235 167)"><tspan style="font-kerning:normal">I</tspan><tspan style="font-kerning:normal"> kept it really simple: just a title and a faint background makes it easy to quickly scan.</tspan></text></g></g><g><path fill="#909ba0" d="M239 269h12v1h-12z"/></g><g><path fill="#068466" d="M259 257h72a2 2 0 0 1 2 2v20a2 2 0 0 1-2 2h-72a2 2 0 0 1-2-2v-20a2 2 0 0 1 2-2z"/></g><g><g><text fill="#fff" dominant-baseline="text-before-edge" font-family="'Poppins','Poppins-Medium'" font-size="14" transform="translate(273 263)"><tspan style="font-kerning:normal">J</tspan><tspan style="font-kerning:normal">hone</tspan></text></g></g></g></svg>