<svg xmlns="http://www.w3.org/2000/svg" width="367" height="163" viewBox="0 0 367 163"><g><g><path fill="#f8f8f8" d="M1.841 162.981a1.745 1.745 0 0 1-1.237-2.983c20.999-20.97 47.126-38.147 73.569-48.365 28.594-11.049 56.657-13.857 81.152-8.123 10.01 2.343 18.075 5.476 24.455 9.056 3.994-8.939 11.583-17.798 24.412-24.521 12.71-6.662 27.109-12.393 42.353-18.462 37.142-14.784 79.239-31.54 116.8-69.049a1.752 1.752 0 0 1 2.474 0 1.745 1.745 0 0 1 0 2.471c-38.07 38.018-80.523 54.917-117.977 69.825-15.158 6.033-29.475 11.732-42.023 18.309-12.214 6.4-19.34 14.819-23.01 23.239 12.384 7.899 17.367 17.562 17.454 25.72.066 6.214-2.895 11.326-7.2 12.431-5.943 1.527-11.754-2.616-14.811-10.546-2.578-6.689-3.236-16.326.232-26.168-6.143-3.492-14.034-6.579-23.957-8.901C108.1 96.043 47.237 118.37 3.08 162.469c-.342.342-.79.512-1.238.512zm179.702-45.301c-2.9 8.713-2.3 17.147-.025 23.047 1.891 4.908 5.69 9.707 10.674 8.416 2.313-.593 4.626-3.878 4.572-9.01-.076-7.049-4.441-15.404-15.22-22.453z"/></g></g></svg>