<svg xmlns="http://www.w3.org/2000/svg" width="452" height="270" viewBox="0 0 452 270"><g><g><path fill="#fff" d="M418.141.092c-31.99-.002-58.216 10.745-79.596 32.472-24.57 24.968-39.306 60.957-52.307 92.71-16.06 39.222-29.93 73.095-57.077 77.125-39.482 5.863-73.007-16.22-105.428-37.574-27.566-18.154-53.6-35.303-82.145-35.303-10.83 0-19.7 4.126-26.362 12.262C3.707 155.85-1.287 181.471.382 217.937c1.238 27.051 5.893 50.314 5.94 50.546a.993.993 0 0 0 1.178.78c.54-.109.89-.635.781-1.175-.186-.92-18.282-92.347 8.492-125.04 6.265-7.65 14.614-11.528 24.815-11.528 27.944 0 53.737 16.987 81.045 34.972 32.735 21.56 66.593 43.85 106.821 37.882 28.274-4.196 42.343-38.558 58.634-78.345 12.931-31.582 27.589-67.377 51.882-92.065 27.805-28.257 64.036-37.59 110.754-28.53a.999.999 0 0 0 .38-1.96C439.493 1.223 428.511.093 418.141.092z"/></g></g></svg>