<svg xmlns="http://www.w3.org/2000/svg" width="425" height="312" viewBox="0 0 425 312"><g><g><path fill="#f8f8f8" d="M9.816 330.977a2.11 2.11 0 0 1-1.954-1.31c-12.841-31.437-8.36-70.7 11.415-100.026 20.041-29.719 53.274-46.085 93.577-46.085 23.445 0 41.69 4.133 55.466 10.57 3.54-5.322 8.33-10.118 14.523-14.018 19.748-12.437 38.172-7.214 57.68-1.68 21.652 6.14 44.04 12.488 72.787-2.151 36.524-18.6 37.458-56.376 38.361-92.91.702-28.4 1.366-55.226 18.834-71.084 33.938-30.809 126.27 7.071 130.182 8.699a2.102 2.102 0 0 1 1.137 2.75 2.115 2.115 0 0 1-2.76 1.133c-.935-.39-93.758-38.489-125.718-9.471-16.136 14.648-16.777 40.601-17.457 68.078-.89 36.004-1.9 76.812-40.66 96.552-30.226 15.395-54.47 8.518-75.86 2.452-19.381-5.497-36.12-10.246-54.274 1.19-5.627 3.543-9.88 7.758-13.01 12.334 19.325 10.235 28.837 25.227 30.974 38.895 2.012 12.857-2.912 23.853-11.971 26.741-9.337 2.978-19.391-3.687-25.61-16.981-6.605-14.125-7.323-32.11.67-46.913-13.18-6.072-30.702-9.979-53.294-9.979-38.854 0-70.844 15.707-90.076 44.225-19.014 28.197-23.335 65.915-11.01 96.092a2.099 2.099 0 0 1-1.157 2.74 2.07 2.07 0 0 1-.795.157zm160.08-131.39c-8.023 14.811-5.696 32.38-.594 43.29 5.265 11.254 13.32 17.045 20.5 14.751 7.035-2.24 10.771-11.322 9.089-22.085-1.973-12.615-10.874-26.438-28.994-35.956z"/></g></g></svg>