<svg xmlns="http://www.w3.org/2000/svg" width="18" height="22" viewBox="0 0 18 22"><g><g><path fill="#c7c5c5" d="M17.94 19.018a.45.45 0 0 1-.39.232H.45a.448.448 0 0 1-.391-.233.465.465 0 0 1 .005-.462l1.546-2.623a7.906 7.906 0 0 0 1.09-4.009V9.625c0-2.901 1.9-5.355 4.5-6.146V1.833C7.2.823 8.007 0 9 0c.992 0 1.8.822 1.8 1.833V3.48c2.599.79 4.5 3.245 4.5 6.146v2.298c0 1.412.376 2.799 1.09 4.01l1.545 2.623a.467.467 0 0 1 .006.462zm-6.106 1.149C11.326 21.247 10.25 22 8.999 22c-1.251 0-2.326-.754-2.834-1.833z"/></g></g></svg>