<?xml version="1.0" encoding="utf-8"?>
<!-- Generator: Adobe Illustrator 16.0.0, SVG Export Plug-In . SVG Version: 6.00 Build 0)  -->
<!DOCTYPE svg PUBLIC "-//W3C//DTD SVG 1.1//EN" "http://www.w3.org/Graphics/SVG/1.1/DTD/svg11.dtd">
<svg version="1.1" id="Layer_1" xmlns="http://www.w3.org/2000/svg" xmlns:xlink="http://www.w3.org/1999/xlink" x="0px" y="0px"
	 width="710px" height="702.5px" viewBox="144.5 0 710 702.5" enable-background="new 144.5 0 710 702.5" xml:space="preserve">
<path fill="#03504e" d="M812.5,875h-625c-34.551,0-62.5,27.949-62.5,62.5s27.949,60.742,62.5,60.742h625c34.551,0,62.5-27.949,62.5-60.742
	S847.07,875,812.5,875z M218.75,406.25H437.5v216.992c0,34.551,27.949,60.742,62.5,60.742s62.5-27.949,62.5-60.742V406.25h218.75
	c34.551,0,62.5-27.969,62.5-62.52s-27.949-62.48-62.5-62.48H562.5V62.5c0-34.551-27.949-62.52-62.5-62.52s-62.5,28.008-62.5,62.539
	v218.75H218.75c-34.551,0-62.5,27.949-62.5,62.48S184.199,406.25,218.75,406.25z"/>
</svg>
