<svg xmlns="http://www.w3.org/2000/svg" width="60" height="60" viewBox="0 0 60 60"><g><g><path fill="#fff" d="M60 30c0 8.013-3.12 15.547-8.787 21.213C45.547 56.88 38.013 60 30 60c-8.014 0-15.547-3.12-21.213-8.787C3.12 45.547 0 38.013 0 30c0-8.013 3.12-15.547 8.787-21.213C14.453 3.12 21.987 0 30 0c8.013 0 15.547 3.12 21.213 8.787C56.88 14.453 60 21.987 60 30zm-3.516 0c0-14.604-11.88-26.484-26.484-26.484C15.396 3.516 3.516 15.396 3.516 30c0 14.604 11.88 26.484 26.484 26.484 14.604 0 26.484-11.88 26.484-26.484z"/></g><g><path fill="#ffc776" d="M44.333 20.374a1.758 1.758 0 0 0-2.486 0L26.324 35.897l-8.17-8.171a1.758 1.758 0 0 0-2.487 2.485l9.414 9.415c.343.343.793.514 1.243.514.45 0 .9-.171 1.243-.514L44.333 22.86c.686-.686.686-1.8 0-2.486z"/></g></g></svg>