<svg xmlns="http://www.w3.org/2000/svg" width="19" height="15" viewBox="0 0 19 15"><g><g><path fill="#fff" d="M2.424 11.533A2.497 2.497 0 0 1 .72 9.166c.008-1.868 1.238-3.503 3.009-4a3.368 3.368 0 0 1-.54-1.824C3.183 1.502 4.647.005 6.458 0a3.15 3.15 0 0 1 1.45.358c-1.866.76-3.09 2.598-3.09 4.642 0 .568.098 1.132.287 1.666a7.625 7.625 0 0 0-2.68 4.867zm16.328-2.367a2.496 2.496 0 0 1-1.705 2.36 7.619 7.619 0 0 0-2.68-4.86A5.02 5.02 0 0 0 14.654 5c0-2.044-1.223-3.882-3.09-4.642A3.147 3.147 0 0 1 13.014 0a3.243 3.243 0 0 1 1.795.55c1.513 1.012 1.93 3.08.936 4.616 1.77.497 3 2.132 3.007 4zM15.474 12.5c0 1.38-1.101 2.5-2.46 2.5H6.458c-1.358 0-2.459-1.12-2.459-2.5.01-2.27 1.315-4.328 3.345-5.275a3.375 3.375 0 0 1 0-4.484 3.241 3.241 0 0 1 4.631-.225 3.372 3.372 0 0 1 .221 4.709c2.004.966 3.28 3.02 3.279 5.275z"/></g></g></svg>