<svg xmlns="http://www.w3.org/2000/svg" width="20" height="15" viewBox="0 0 20 15"><g><g><path fill="#015352" d="M0 2.505c0-.345.28-.625.625-.625h5.567A2.504 2.504 0 0 1 8.61 0c1.165 0 2.139.802 2.42 1.88h8.344a.624.624 0 1 1 0 1.25h-8.345A2.506 2.506 0 0 1 8.61 5.01a2.504 2.504 0 0 1-2.418-1.88H.625A.625.625 0 0 1 0 2.504zm7.353 0a1.258 1.258 0 0 0 2.514 0 1.258 1.258 0 0 0-2.514 0zM19.998 7.5c0 .344-.28.625-.624.625h-1.338a2.505 2.505 0 0 1-2.42 1.88 2.505 2.505 0 0 1-2.419-1.88H.625a.625.625 0 0 1 0-1.25h12.572a2.505 2.505 0 0 1 2.42-1.88c1.165 0 2.14.802 2.419 1.88h1.338c.345 0 .624.28.624.625zm-3.124 0a1.258 1.258 0 0 0-2.515 0 1.257 1.257 0 0 0 2.515 0zm3.124 4.995c0 .344-.28.624-.624.624H7.264a2.503 2.503 0 0 1-2.418 1.88 2.503 2.503 0 0 1-2.418-1.88H.625a.624.624 0 1 1 0-1.248h1.803A2.503 2.503 0 0 1 4.846 9.99c1.165 0 2.14.802 2.418 1.88h12.11c.345 0 .624.28.624.625zm-13.895 0a1.258 1.258 0 0 0-2.513 0 1.258 1.258 0 0 0 2.513 0z"/></g></g></svg>