<svg xmlns="http://www.w3.org/2000/svg" width="25" height="25" viewBox="0 0 25 25"><defs><clipPath id="yk24a"><path fill="#fff" d="M1.04 23.96V1.04h22.92v22.92zM6.492 4.898c-4.374 3.372-5.187 9.65-1.815 14.025 3.372 4.374 9.651 5.187 14.025 1.815 4.374-3.371 5.187-9.65 1.816-14.025-3.372-4.374-9.651-5.187-14.026-1.815z"/></clipPath></defs><g><g><path fill="#ffc776" d="M6.492 4.898c4.375-3.372 10.654-2.559 14.026 1.815 3.371 4.374 2.558 10.654-1.816 14.025-4.374 3.372-10.653 2.56-14.025-1.815C1.305 14.55 2.118 8.27 6.492 4.898z"/><path fill="none" stroke="#ffc776" stroke-linecap="round" stroke-linejoin="round" stroke-miterlimit="20" stroke-width="4" d="M6.492 4.898c4.375-3.372 10.654-2.559 14.026 1.815 3.371 4.374 2.558 10.654-1.816 14.025-4.374 3.372-10.653 2.56-14.025-1.815C1.305 14.55 2.118 8.27 6.492 4.898z" clip-path="url(&quot;#yk24a&quot;)"/></g><g><path fill="#041b28" d="M10.99 10.531l-3.783.403a.358.358 0 0 0-.302.236.332.332 0 0 0 .1.36c1.125.985 2.814 2.46 2.814 2.46-.001 0-.464 2.147-.77 3.578a.34.34 0 0 0 .14.35.367.367 0 0 0 .386.018 2522.29 2522.29 0 0 0 3.308-1.808l3.305 1.81c.12.063.272.062.388-.02a.339.339 0 0 0 .14-.349l-.768-3.58s1.69-1.474 2.813-2.458c.1-.09.146-.229.1-.361a.355.355 0 0 0-.3-.235c-1.514-.163-3.784-.404-3.784-.404l-1.567-3.33a.364.364 0 0 0-.653 0l-1.567 3.33z"/></g></g></svg>