<?xml version="1.0" encoding="utf-8"?>
<!-- Generator: Adobe Illustrator 16.0.0, SVG Export Plug-In . SVG Version: 6.00 Build 0)  -->
<!DOCTYPE svg PUBLIC "-//W3C//DTD SVG 1.1//EN" "http://www.w3.org/Graphics/SVG/1.1/DTD/svg11.dtd">
<svg version="1.1" id="Layer_1" xmlns="http://www.w3.org/2000/svg" xmlns:xlink="http://www.w3.org/1999/xlink" x="0px" y="0px"
	 width="443px" height="390.559px" viewBox="29.5 58.941 443 390.559" enable-background="new 29.5 58.941 443 390.559"
	 xml:space="preserve">
<g id="OBJECT">
	<g>
		<path fill="#FFC776" d="M430.667,276.128c-4.424,95.577-89.453,122.787-195.358,124.835
			c-161.5,3.121-180.296-48.188-180.296-143.87c0-95.684,35.207-194.471,128.558-187.188c44.354,3.46,94.693,76.97,132.384,101.363
			C368.014,204.961,433.99,204.331,430.667,276.128z"/>
		<path opacity="0.42" fill="none" stroke="#4570B4" stroke-miterlimit="10" enable-background="new    " d="M52.526,316.163
			c0,0,33.638-14.677,49.105-62.534c15.467-47.857,43.505-88.157,96.628-90.864c53.123-2.707,110.584,0.62,129.569-27.9
			c18.982-28.521-21.588-29.173-22.159,20.867c-0.571,50.041,86.857,141.808,91.429,213.066c4.571,71.26-54.457,57.115-127.8,28.474
			c-73.343-28.643-149.902,28.046-197.623,6.845C23.955,382.915,26.026,337.566,52.526,316.163z"/>
		<circle opacity="0.42" fill="#4570B4" enable-background="new    " cx="59.667" cy="241.411" r="19.291"/>
		
			<circle opacity="0.42" fill="none" stroke="#4570B4" stroke-miterlimit="10" enable-background="new    " cx="59.667" cy="241.411" r="24.625"/>
		<circle opacity="0.42" fill="#4570B4" enable-background="new    " cx="426.047" cy="253.629" r="22.499"/>
		<polygon opacity="0.42" fill="none" stroke="#4570B4" stroke-miterlimit="10" enable-background="new    " points="
			268.906,192.944 262.832,202.587 275.764,202.587 		"/>
		<polygon opacity="0.42" fill="#4570B4" enable-background="new    " points="183.25,103.152 175.137,116.034 192.41,116.034 		"/>
		<g>
			<circle opacity="0.42" fill="#4570B4" enable-background="new    " cx="244.06" cy="105.714" r="23.462"/>
			<path fill="#FFFFFF" d="M243.598,102.809l-1.319-2.524c-0.847-1.622-0.22-3.623,1.401-4.47l0,0
				c1.105-0.578,1.533-1.941,0.955-3.046l-1.974-3.777c-0.578-1.105-1.941-1.533-3.046-0.955l-1.719,0.898
				c-1.619,0.846-2.938,2.171-3.778,3.793l-0.502,0.971c-0.866,1.673-0.862,3.664,0.011,5.333l3.689,7.059l2.462,4.711l3.689,7.059
				c0.873,1.67,2.504,2.81,4.373,3.054l1.084,0.142c1.813,0.237,3.652-0.09,5.271-0.936l1.719-0.898
				c1.105-0.577,1.531-1.941,0.955-3.046l-1.975-3.777c-0.576-1.105-1.94-1.533-3.045-0.955l0,0
				c-1.623,0.847-3.624,0.22-4.471-1.401l-1.319-2.524L243.598,102.809z"/>
		</g>
		
			<circle opacity="0.42" fill="none" stroke="#4570B4" stroke-miterlimit="10" enable-background="new    " cx="410.813" cy="370.344" r="4.857"/>
		<circle opacity="0.42" fill="#FFFFFF" enable-background="new    " cx="125.291" cy="104.457" r="8.978"/>
		
			<circle opacity="0.42" fill="none" stroke="#4570B4" stroke-miterlimit="10" enable-background="new    " cx="370.422" cy="229.229" r="8.979"/>
		<circle opacity="0.42" fill="#4570B4" enable-background="new    " cx="87.716" cy="280.614" r="8.751"/>
		
			<circle opacity="0.42" fill="none" stroke="#FFFFFF" stroke-miterlimit="10" enable-background="new    " cx="426.047" cy="253.629" r="15.52"/>
	</g>
	<g>
		<path opacity="0.42" fill="#4570B4" enable-background="new    " d="M412.856,106.616H305.296c-4.595,0-8.319,3.725-8.319,8.32
			v64.971c0,4.596,3.726,8.321,8.319,8.321h68.596v16.379c0,2.741,3.203,4.232,5.302,2.467l22.393-18.846h11.271
			c4.596,0,8.319-3.725,8.319-8.321v-64.971C421.177,110.341,417.452,106.616,412.856,106.616z"/>
		<g>
			<path fill="#FFC776" d="M440.098,114.719c0,9.71-2.79,18.76-7.6,26.36c-0.761,1.22-1.58,2.41-2.45,3.55
				c-8.79,11.54-22.54,18.97-37.99,18.97c-7.93,0-15.409-1.95-22-5.42c-15.47-8.12-26.04-24.54-26.04-43.46
				c0-2.21,0.141-4.39,0.431-6.53c3.13-23.91,23.26-42.36,47.609-42.36C418.588,65.829,440.098,87.719,440.098,114.719z"/>
			<path fill="#006E65" d="M430.049,144.625c-8.79,11.54-22.54,18.97-37.99,18.97c-7.93,0-15.409-1.95-22-5.42
				c0.9-2.25,3.66-8.22,8.551-11.56c6.101-4.18,24.64-6.69,37.5-5.59C423.698,141.665,427.889,143.354,430.049,144.625z"/>
			<path fill="#FFFFFF" d="M370.422,89.921l0.503,23.871c0,0,0.758,24.387,20.604,23.955c19.848-0.432,24.041-30.56,24.041-30.56
				l-3.122-18.278C412.448,88.91,389.249,73.428,370.422,89.921z"/>
			<path fill="#FFFFFF" d="M391.664,132.011c0,0,1.475,9.23-0.751,12.248c-2.226,3.018,4.418,13.505,4.418,13.505l15.367-14.098
				c0,0-1.021-10.335-0.743-19.386L391.664,132.011z"/>
			<path fill="#00496A" d="M370.537,95.405c0,0,5.711,1.818,11.818,1.283c6.106-0.535,8.25-3,8.25-3s2.035,0.857,5.356,0.857
				s5.785-1.607,5.785-1.607s-2.25,3.857-1.285,8.786c0.964,4.929,4.179,6.214,4.179,6.214s2.035-4.929,5.571-4.929
				c3.535,0,4.822,3.75,3.911,8.679s-6.59,6.107-6.59,6.107l2.421,6.485c0,0,9.149-9.807,10.222-20.628
				c1.072-10.821-4.393-14.036-4.393-14.036s0.456-8.036-10.271-10.821c-10.729-2.786-17.8-2.572-25.836,2.036
				c0,0-6.75-5.143-12.429-2.036c-5.678,3.107-4.071,9.75-1.285,11.464c0,0-5.465,1.393-4.286,8.143s9.055,6.222,9.055,6.222
				L370.537,95.405z"/>
			<path fill="#D9D9D9" d="M391.529,137.747c0,0,14.426-3.817,15.854-13.467c0,0,3.579,13.992-15.854,18.742
				C391.529,143.021,392.104,138.865,391.529,137.747z"/>
		</g>
		<g>
			<circle opacity="0.42" fill="#4570B4" enable-background="new    " cx="443.641" cy="81.405" r="22.464"/>
			<g>
				<path fill="#FFFFFF" d="M441.104,87.453l-0.079-1.045c-0.241-2.17,0.481-4.542,2.49-6.953c1.81-2.13,2.813-3.698,2.813-5.506
					c0-2.05-1.286-3.416-3.817-3.457c-1.446,0-3.055,0.482-4.06,1.246l-0.965-2.532c1.326-0.964,3.617-1.607,5.747-1.607
					c4.622,0,6.712,2.854,6.712,5.908c0,2.733-1.527,4.702-3.456,6.993c-1.77,2.09-2.411,3.858-2.291,5.908l0.04,1.045H441.104z
					 M440.221,93.08c0-1.487,1.004-2.532,2.411-2.532c1.406,0,2.371,1.045,2.371,2.532c0,1.407-0.924,2.492-2.411,2.492
					C441.185,95.572,440.221,94.487,440.221,93.08z"/>
			</g>
		</g>
	</g>
	<g>
		<g>
			<g>
				<path fill="#C5DFD9" d="M405.444,345.499c-0.071,0.228-0.161,0.419-0.27,0.574c-1.896,2.749-3.9,5.417-6.013,8.003h-0.009
					c-68.637,84.346-245.149,84.346-245.149,84.346V337.751h251.17C405.176,337.751,406.143,343.232,405.444,345.499z"/>
				<path fill="#B3C4BF" d="M405.444,345.499c-0.071,0.228-0.161,0.419-0.27,0.574c-1.896,2.749-3.9,5.417-6.013,8.003h-0.009
					l-245.149,27.896v-36.475L405.444,345.499L405.444,345.499z"/>
				<path fill="#005955" d="M269.298,266.539l-12.149,12.88c0,0-2.49-2.56-5.471-6.479c-1.42-1.881-2.95-4.069-4.36-6.439
					c-1.85-3.1-3.51-6.5-4.46-9.91c-3.2-11.45-1.89-35.6-1.89-35.6s5.18,0.56,6.95,2.53
					C257.889,234.619,269.298,266.539,269.298,266.539z"/>
				<path fill="#4570B4" d="M223.625,308.616h-87.004l-7.945-66.901c-0.913-7.657,4.429-14.631,11.945-15.605l5.234-0.683
					l66.479-8.64L223.625,308.616z"/>
				<path fill="#005955" d="M202.38,218.999c0,0-28.312,9.105-29.846,11.446c-1.534,2.341,11.759,43.833,11.759,43.833
					l-2.556,34.339h57.646l2.905-32.769c0,0,6.17-6.772,6.553-17.959c0.384-11.186-7.878-36.898-7.878-36.898l-20.114-2.641
					L202.38,218.999z"/>
				<path fill="#00496A" d="M210.485,154.548c0,0-19.734-8.485-33.743,11.313c-14.009,19.799,0.499,50.925,0.499,50.925
					s35.746-4.667,45.641-5.621s11.896-0.954,11.896-0.954s5.098-31.269-5.781-42.766
					C218.117,155.949,210.485,154.548,210.485,154.548z"/>
				<path fill="#FFFFFF" d="M217.828,231.769l-16.66-11.42c0,0,1.37-4.37,1.03-8.74c-0.08-0.97-0.24-1.94-0.52-2.86
					c-0.14-0.46-0.31-0.91-0.51-1.35l16.66-0.83c0,0,0.11,1.35,0.42,3.09c0.25,1.36,0.62,2.96,1.18,4.35
					c0.4,1.03,0.9,1.94,1.52,2.57C223.498,219.169,217.828,231.769,217.828,231.769z"/>
				<path fill="#D9D9D9" d="M219.428,214.009c-2.14,0.07-11.33,0.21-17.23-2.4c-0.08-0.97-0.24-1.94-0.52-2.86
					c0,0,11.23,1.37,16.57,0.91C218.498,211.019,218.868,212.619,219.428,214.009z"/>
				<path fill="#FFFFFF" d="M227.2,162.063l2.777,22.96c0,0,3.642,23.658-15.451,25.955c-19.092,2.296-25.51-19.773-25.51-19.773
					l-2.256-24.373C186.759,166.832,206.893,148.817,227.2,162.063z"/>
				<path fill="#00496A" d="M218.496,163.843c0,0-2.498,6.143-10.712,10.5c-7.282,3.863-14.115,4.929-14.115,4.929
					s-1.096,6.466-4.784,10.524c0,0-6.378-12.103-3.775-22.522c2.604-10.42,16.055-15.454,27.857-14.395
					c11.803,1.06,16.055,5.387,17.617,12.275c1.563,6.888-1.053,16.184-1.053,16.184S227.026,165.986,218.496,163.843z"/>
				<path fill="#68A8DE" d="M186.759,184.734c0,0-2.273-17.461,11.195-26.733c8.771-6.038,19.807-4.431,19.807-4.431
					s-6.963-5.241-20.675,0.81c-13.712,6.051-14.406,19.733-13.017,30.354H186.759z"/>
				<path fill="#375C93" d="M156.466,308.616h-19.845l-7.945-66.901c-0.913-7.657,4.429-14.631,11.945-15.605l5.234-0.683
					L156.466,308.616z"/>
				<g>
					<path fill="#375C93" d="M205.381,206.771c-9.108,0-15.869-6.341-16.171-6.629l1.223-1.329c0.073,0.07,7.463,6.97,16.701,6.051
						l0.175,1.812C206.656,206.741,206.013,206.771,205.381,206.771z"/>
				</g>
				<path fill="#DFECE9" d="M431.079,346.074H158.107c-7.301,0-14.255-3.014-19.115-8.284L124,321.532
					c-5.816-6.308-1.187-16.3,7.552-16.3h266.484c9.21,0,18.06,3.459,24.685,9.646l15.388,14.37
					C444.654,335.363,440.18,346.074,431.079,346.074z"/>
				<path fill="#FFFFFF" d="M306.597,224.835c-0.491,0.267-1.264,0.718-2.104,1.219l-0.161-0.261
					c2.496-1.591,6.194-4.075,5.944-4.683c-0.375-0.911-2.25-0.435-3.645,0.321c-0.804,0.437-2.264,1.305-3.671,2.155l-0.102-0.164
					c2.477-1.565,6.607-4.297,6.345-4.938c-0.375-0.911-2.25-0.435-3.645,0.321c-0.882,0.479-2.552,1.477-4.075,2.401l-0.119-0.191
					c2.457-1.585,5.661-3.787,5.428-4.353c-0.375-0.911-2.25-0.435-3.643,0.321c-1.878,1.02-7.332,4.393-7.332,4.393l-3.973,1.447
					c0.857-1.393,3.269-6.536,2.144-6.536s-4.232,3.589-5.519,7.286c-0.963,2.768-1.084,5.236-1.084,6.3l-34.808,44.229
					c0,0,0.823,1.295,2.069,3.019c3.61,4.995,12.021,6.093,16.875,2.296c3.836-2.999,6.863-6.96,9.828-11.006
					c5.584-7.624,13.916-27.848,15.873-32.689l7.877-7.384c2.159-1.395,4.912-3.295,4.709-3.789
					C309.482,223.747,307.826,224.167,306.597,224.835z"/>
				<path fill="#00496A" d="M215.029,315.986c0,0,4.072,3,5.679,7.07c1.607,4.071-8.679,6.693-25.849,0.863
					C182.366,319.68,203.458,306.665,215.029,315.986z"/>
				<path fill="#00496A" d="M208.563,207.867h-2.301c-0.821,0-1.486-0.677-1.486-1.512v-1.415c0-0.835,0.665-1.512,1.486-1.512
					h2.301c0.82,0,1.486,0.677,1.486,1.512v0.708v0.707C210.049,207.19,209.384,207.867,208.563,207.867z"/>
				<path fill="#4570B4" d="M196.596,189.912c1.272,6.363-2.039,12.42-7.397,13.53c-5.358,1.109-10.733-3.149-12.005-9.512
					c-1.272-6.363,2.039-12.42,7.397-13.53C189.948,179.291,195.324,183.549,196.596,189.912z"/>
				<path fill="#68A8DE" d="M191.197,191.03c0.751,3.753-1.203,7.327-4.363,7.98c-3.161,0.654-6.331-1.857-7.082-5.611
					c-0.75-3.753,1.203-7.327,4.364-7.981C187.275,184.765,190.446,187.277,191.197,191.03z"/>
				<path fill="#005955" d="M177.197,227.94c0,0-4.863,0.729-6.836,3.87c-8.456,13.462-24.925,54.627-24.925,54.627l15.88,7.023
					c0,0,20.879-24.191,22.796-35.703C186.03,246.248,177.197,227.94,177.197,227.94z"/>
				<path fill="#FFFFFF" d="M159.816,289.95l32.594,21.2l-4.602,10.211c0,0-29.334-10.535-38.346-17.364
					c-9.011-6.828-4.026-17.56-4.026-17.56S150.421,285.854,159.816,289.95z"/>
				<path fill="#FFFFFF" d="M191.452,310.826c0,0,10.992-0.521,14.955-0.521c3.963,0,10.865,6.504,10.098,8.584
					c-0.767,2.081-8.692-4.291-8.692-4.291l-0.447,0.846c0,0,7.03,4.291,7.414,5.918c0.383,1.625-1.214,1.365-3.515,0.391
					c-2.301-0.975-5.752-3.188-5.752-3.188l-0.383,0.455c0,0,6.646,4.098,6.646,5.594s-4.793-0.195-8.308-2.536l-0.448,0.715
					c0,0,4.346,2.211,4.666,3.642c0.32,1.432-2.045,0.846-4.666-0.39c-2.62-1.235-5.049-1.366-8.436-1.886
					c-3.387-0.521-7.406-3.026-7.406-3.026L191.452,310.826z"/>
				<path fill="#4570B4" d="M393.525,251.357l-15.632,78.394H262.091l15.54-77.94c0.329-1.647,1.752-2.832,3.403-2.832h110.58
					C392.848,248.979,393.771,250.128,393.525,251.357z"/>
				<path fill="#00496A" d="M262.091,329.751L230.276,319.4c-1.124-0.364-1.884-1.412-1.884-2.594l0,0
					c0-1.508,1.222-2.729,2.729-2.729h34.096L262.091,329.751z"/>
				<path fill="#006E65" d="M178.608,231.125c0,0,7.123,20.143,2.806,33.966C181.414,265.091,195.975,248.906,178.608,231.125z"/>
				<path fill="#006E65" d="M251.678,272.939c-1.42-1.881-2.95-4.07-4.36-6.44c2.94-11.55-3.9-37.27-3.9-37.27
					C258.407,248.339,254.229,266.089,251.678,272.939z"/>
				<polygon fill="#375C93" points="284.6,253.629 377.895,329.751 271.525,329.751 				"/>
				<circle fill="#A6D6F7" cx="337.13" cy="293.524" r="9.302"/>
				<path fill="#028C81" d="M202.088,215.754l15.74,16.015c0,0-2.73,3.862-7.275,3.755c-4.545-0.107-7.098-5.884-8.384-8.89
					c-1.286-3.006-3.91-6.286-3.91-6.286L202.088,215.754z"/>
				<path fill="#028C81" d="M217.828,231.769c0,0,4.056,2.467,8.02,0.753c3.964-1.714,2.893-4.334,1.5-7.096
					c-1.393-2.761-2.893-7.69-2.893-7.69l-4.519-2.605C219.936,215.131,220.736,225.659,217.828,231.769z"/>
				<path fill="#006E65" d="M242.096,262.701l-39.662,3.837c0,0,8.893,6.377,22.583,4.448
					C238.708,269.059,242.096,262.701,242.096,262.701z"/>
			</g>
			<g>
				<path opacity="0.42" fill="#4570B4" enable-background="new    " d="M153.445,133.742H81.723c-4.572,0-8.278,3.706-8.278,8.278
					v19.011c0,4.572,3.707,8.278,8.278,8.278h60.417l19.584,11.32v-11.32v-5.473V142.02
					C161.724,137.448,158.017,133.742,153.445,133.742z"/>
				
					<line fill="none" stroke="#FFFFFF" stroke-linecap="round" stroke-linejoin="round" stroke-miterlimit="10" x1="78.957" y1="142.343" x2="153.669" y2="142.343"/>
				
					<line fill="none" stroke="#FFFFFF" stroke-linecap="round" stroke-linejoin="round" stroke-miterlimit="10" x1="78.957" y1="151.464" x2="153.669" y2="151.464"/>
				
					<line fill="none" stroke="#FFFFFF" stroke-linecap="round" stroke-linejoin="round" stroke-miterlimit="10" x1="78.957" y1="160.584" x2="153.669" y2="160.584"/>
			</g>
		</g>
		<g>
			<g>
				<path fill="#006E65" d="M157.551,354.792c1.876-15.519-10.372-13.187-18.748-5c-8.376,8.187-16.588,3.615-7.297-11.679
					c9.291-15.293,16.095-19.997,14.808-27.697c-1.286-7.699-8.002-4.333-19.622,2.072c-11.619,6.404-0.638-10.316-1.516-26.18
					c-0.877-15.861-16.628-7.937-17.952,5.416c-1.324,13.352,4.638,28.301-3.007,25.336c-7.645-2.966-12.267-20.701-19.218-12.33
					c-6.951,8.373,19.62,36.76,18.728,45.33c-0.892,8.569-20.009-17.547-25.501-8.947c-5.492,8.599,18.269,66.021,38.839,64.412
					C143.198,403.482,155.675,370.311,157.551,354.792z"/>
				<path fill="none" stroke="#FFFFFF" stroke-miterlimit="10" d="M115.208,293.59c0,0-3.285,17.956-1.971,40.73
					c1.314,22.775,4.291,80.078,4.291,80.078"/>
				<path fill="none" stroke="#FFFFFF" stroke-miterlimit="10" d="M92.871,316.163c0,0,15.096,17.916,20.578,21.869
					c0,0,19.497-18.787,23.22-21.869"/>
				<path fill="none" stroke="#FFFFFF" stroke-miterlimit="10" d="M83.955,352.035c0,0,22.7,22.835,31.576,24.352l33.402-22.393"/>
				<path fill="#005955" d="M108.143,396.707c0,0,9.839-21.758,4.538-33.447c-5.301-11.689-12.902-4.83-15.289,4.486
					c-2.387,9.316-10.099,9.611-10.101-5.083s2.766-20.897-1.421-25.753s-7.464,0.373-12.887,9.822
					c-5.423,9.451-4.847-6.967-12.228-17.726c-7.381-10.758-15.054,1.521-10.289,11.457c4.765,9.935,15.325,17.884,8.695,19.062
					c-6.629,1.181-17.438-9.295-18.745-0.455c-1.308,8.841,29.445,17.429,32.474,23.822c3.029,6.396-21.524-3.778-21.711,4.599
					c-0.187,8.376,28.384,23.079,41.317,20.891C105.43,406.193,108.143,396.707,108.143,396.707z"/>
				<path fill="none" stroke="#FFFFFF" stroke-miterlimit="10" d="M56.3,335.541c0,0,37.447,60.171,45.331,78.857"/>
				<polyline fill="none" stroke="#FFFFFF" stroke-miterlimit="10" points="50.168,364.104 76.506,368.798 81.922,346.146 				"/>
				<polyline fill="none" stroke="#FFFFFF" stroke-miterlimit="10" points="64.088,391.127 92.225,395.997 103.821,370.455 				"/>
			</g>
			<g>
				<polygon fill="#375C93" points="91.412,414.398 139.005,414.398 134.917,438.422 96.375,438.422 				"/>
				<path fill="#4570B4" d="M139.586,421.041H91.268c-1.775,0-3.214-1.438-3.214-3.214v-2.55c0-1.775,1.439-3.215,3.214-3.215
					h48.319c1.775,0,3.214,1.438,3.214,3.215v2.55C142.801,419.604,141.362,421.041,139.586,421.041z"/>
			</g>
		</g>
		<g>
			<circle opacity="0.42" fill="#4570B4" enable-background="new    " cx="311.624" cy="408.015" r="33.044"/>
			<path fill="#FFFFFF" d="M332.387,395.809h-41.527c-1.137,0-2.059,0.922-2.059,2.059v22.883c0,1.137,0.922,2.059,2.059,2.059
				h41.526c1.138,0,2.06-0.922,2.06-2.059v-22.883C334.445,396.729,333.523,395.809,332.387,395.809z M333.002,399.107l-19.5,12.75
				c-0.165,0.108-0.355,0.164-0.547,0.164c-0.168,0-0.337-0.043-0.489-0.129l-22.715-12.75c-0.481-0.271-0.653-0.879-0.383-1.36
				c0.271-0.482,0.882-0.653,1.36-0.384l22.188,12.453l18.992-12.418c0.46-0.303,1.082-0.172,1.384,0.291
				C333.595,398.188,333.465,398.807,333.002,399.107z"/>
			<circle fill="#028C81" cx="337.13" cy="392.204" r="12.247"/>
		</g>
	</g>
</g>
</svg>
